# xmcd CD database file
#
# Track frame offsets:
#	150
#	15650
#	39761
#	59916
#	86724
#	99724
#	110434
#	129944
#	149475
#	169002
#	182142
#	206625
#	225634
#	247845
#	259106
#	274036
#	289884
#	304392
#	318447
#	332595
#
# Disc length: 4703 seconds
#
# Revision: 0
# Processed by: cddbd v1.5.2PL0 Copyright (c) Steve Scherf et al.
# Submitted via: CDex 1.70beta2
#
DISCID=24125d14
DTITLE=Various Artist - Best Of The Blues
DYEAR=2006
DGENRE=Blues
TTITLE0=John Lee Hooker - This Is Hip
TTITLE1=Muddy Waters - Mannish Boy
TTITLE2=Buddy Guy - Damn Right, I've Got The Blue
TTITLE3=Santana - Blues For Salvador
TTITLE4=Fleetwood Mac - Black Magic Woman
TTITLE5=Stevie Ray Vaughn - The House Is Rockin'
TTITLE6=Rory Gallagher - Messin' With The Kid
TTITLE7=Johnny Winter - Shame, Shame, Shame
TTITLE8=George Thorogood and The Destroyers - Who Do You Love?
TTITLE9=Dr. Feelgood - Roxette
TTITLE10=The Fabulous Thunderbirds - Feelin' Good
TTITLE11=Big Brother and The Holding Company - (Take Another) Piece Of My Heart
TTITLE12=Canned Heat - On The Road Again
TTITLE13=Jeff Beck - You Shook Me
TTITLE14=The Animals - Boom Boom
TTITLE15=Manfred Mann - Smokestack Lightning
TTITLE16=Sonny Terry and Brownie Mcghee - Baby Please Don't Go
TTITLE17=Jimmy Rogers - That's Alright
TTITLE18=Big Joe Williams - Shady Grove
TTITLE19=Mississippi Fred McDowell - Good Morning Little School Girl
EXTD=YEAR: 2006
EXTT0=
EXTT1=
EXTT2=
EXTT3=
EXTT4=
EXTT5=
EXTT6=
EXTT7=
EXTT8=
EXTT9=
EXTT10=
EXTT11=
EXTT12=
EXTT13=
EXTT14=
EXTT15=
EXTT16=
EXTT17=
EXTT18=
EXTT19=
PLAYORDER=
